<svg xmlns="http://www.w3.org/2000/svg" width="180" height="44" viewBox="0 0 180 44">
  <metadata><?xpacket begin="﻿" id="W5M0MpCehiHzreSzNTczkc9d"?>
<x:xmpmeta xmlns:x="adobe:ns:meta/" x:xmptk="Adobe XMP Core 5.6-c140 79.160451, 2017/05/06-01:08:21        ">
   <rdf:RDF xmlns:rdf="http://www.w3.org/1999/02/22-rdf-syntax-ns#">
      <rdf:Description rdf:about=""/>
   </rdf:RDF>
</x:xmpmeta>
                                                                                                    
                                                                                                    
                                                                                                    
                                                                                                    
                                                                                                    
                                                                                                    
                                                                                                    
                                                                                                    
                                                                                                    
                                                                                                    
                                                                                                    
                                                                                                    
                                                                                                    
                                                                                                    
                                                                                                    
                                                                                                    
                                                                                                    
                                                                                                    
                                                                                                    
                                                                                                    
                           
<?xpacket end="w"?></metadata>
<defs>
    <style>
      .cls-1 {
        fill: #fff;
      }

      .cls-1, .cls-2 {
        fill-rule: evenodd;
      }

      .cls-2 {
        fill: #ec1111;
      }
    </style>
  </defs>
  <path id="pearlness" class="cls-1" d="M0.125,42.568H3.8V33.94q0-.371-0.009-0.677t-0.028-.529q-0.019-.26-0.037-0.464H3.8a5.844,5.844,0,0,0,1.354,1.577,7.3,7.3,0,0,0,.807.584,6.016,6.016,0,0,0,1.021.51,6.992,6.992,0,0,0,1.243.352,7.855,7.855,0,0,0,1.475.13,8.4,8.4,0,0,0,3.47-.714,7.963,7.963,0,0,0,2.755-2.032,9.6,9.6,0,0,0,1.818-3.173A12.368,12.368,0,0,0,18.4,25.35a13.406,13.406,0,0,0-.594-4.1,9.48,9.48,0,0,0-1.689-3.182,7.586,7.586,0,0,0-2.653-2.06,8.144,8.144,0,0,0-3.507-.733,8.738,8.738,0,0,0-1.67.149,7.586,7.586,0,0,0-1.382.4,7.044,7.044,0,0,0-1.123.566,6.41,6.41,0,0,0-.872.649A5.923,5.923,0,0,0,3.5,18.781H3.428q0.018-.2.037-0.427,0.018-.2.028-0.445T3.5,17.371V15.738H0.125v26.83Zm4.026-20.29a6.244,6.244,0,0,1,1.234-2.152,4.671,4.671,0,0,1,1.772-1.234,5.684,5.684,0,0,1,2.078-.39,4.905,4.905,0,0,1,2.189.492,5.053,5.053,0,0,1,1.726,1.392,6.565,6.565,0,0,1,1.123,2.171,9.424,9.424,0,0,1,.4,2.83,9.018,9.018,0,0,1-.436,2.913,6.446,6.446,0,0,1-1.2,2.162,5.172,5.172,0,0,1-1.772,1.345,5.079,5.079,0,0,1-2.143.464,4.56,4.56,0,0,1-2.338-.594,5.452,5.452,0,0,1-1.707-1.549A7.013,7.013,0,0,1,4.04,27.938a9.1,9.1,0,0,1-.353-2.514A9.443,9.443,0,0,1,4.151,22.279Zm15.9,7.051a9.522,9.522,0,0,0,2.087,3.2,9.636,9.636,0,0,0,3.219,2.125,10.791,10.791,0,0,0,4.138.77A10.4,10.4,0,0,0,32.607,35a13.338,13.338,0,0,0,2.329-.946,10.98,10.98,0,0,0,2-1.373l-1.522-2.69A8.372,8.372,0,0,1,33.8,31.12a11.014,11.014,0,0,1-1.809.77,7.148,7.148,0,0,1-2.273.343,7.527,7.527,0,0,1-2.449-.4,5.911,5.911,0,0,1-3.525-3.182,7.268,7.268,0,0,1-.631-2.765H37.125q0.018-.315.056-0.612,0.037-.26.056-0.529t0.019-.455a11.228,11.228,0,0,0-.538-3.516,8.36,8.36,0,0,0-1.587-2.867,7.384,7.384,0,0,0-2.607-1.93,8.655,8.655,0,0,0-3.6-.705,10.013,10.013,0,0,0-3.813.714,8.914,8.914,0,0,0-3.043,2.032,9.423,9.423,0,0,0-2.022,3.173,11.226,11.226,0,0,0-.733,4.156A10.568,10.568,0,0,0,20.055,29.33ZM23.228,23.1a6.5,6.5,0,0,1,.714-2.1,5.53,5.53,0,0,1,1.243-1.531,5.177,5.177,0,0,1,1.67-.946,6.052,6.052,0,0,1,1.995-.325,5.149,5.149,0,0,1,1.753.3,3.939,3.939,0,0,1,1.447.909,4.687,4.687,0,0,1,1.011,1.531,5.976,5.976,0,0,1,.427,2.162H23.228Zm15.236,9a5.482,5.482,0,0,0,1.475,1.828,6.569,6.569,0,0,0,2.087,1.113,7.752,7.752,0,0,0,2.412.38,7.014,7.014,0,0,0,1.577-.167,7.781,7.781,0,0,0,1.327-.427,5.326,5.326,0,0,0,1.067-.6,8.9,8.9,0,0,0,.835-0.7A6.48,6.48,0,0,0,50.6,31.621h0.074q-0.019.186-.037,0.427-0.019.2-.028,0.492t-0.009.6v1.818h3.414V22.808a7.505,7.505,0,0,0-1.967-5.6,7.722,7.722,0,0,0-5.641-1.93,11.191,11.191,0,0,0-2.978.362,15.742,15.742,0,0,0-2.254.789,10.893,10.893,0,0,0-1.948,1.132l1.521,2.691a9.617,9.617,0,0,1,1.559-.928,10.942,10.942,0,0,1,1.707-.64,7.44,7.44,0,0,1,2.1-.288,6.28,6.28,0,0,1,1.679.213,3.39,3.39,0,0,1,1.336.705,3.252,3.252,0,0,1,.881,1.3A5.512,5.512,0,0,1,50.32,22.6v0.353H49.485q-0.8,0-1.976.046a20.909,20.909,0,0,0-2.458.25,16.793,16.793,0,0,0-2.561.622,8.355,8.355,0,0,0-2.3,1.15,5.7,5.7,0,0,0-1.651,1.846,5.376,5.376,0,0,0-.631,2.69A5.535,5.535,0,0,0,38.463,32.1Zm3.544-4.2a3.39,3.39,0,0,1,1.021-1.011,5.332,5.332,0,0,1,1.447-.64,12.412,12.412,0,0,1,1.688-.353,16.526,16.526,0,0,1,1.716-.148q0.844-.028,1.531-0.028h0.946v0.612a7,7,0,0,1-1.392,4.128A5.516,5.516,0,0,1,47.351,31.9a4.093,4.093,0,0,1-2.115.557,4.357,4.357,0,0,1-1.568-.26,3.332,3.332,0,0,1-1.132-.7,2.942,2.942,0,0,1-.687-0.983,2.891,2.891,0,0,1-.232-1.141A2.662,2.662,0,0,1,42.007,27.9Zm15.236,7.06h3.674V27.094a14.9,14.9,0,0,1,.1-1.754,9.393,9.393,0,0,1,.362-1.7,7.541,7.541,0,0,1,.881-1.911,6.219,6.219,0,0,1,1.262-1.419,5.368,5.368,0,0,1,1.54-.891,4.9,4.9,0,0,1,1.716-.306q0.2,0,.4.019t0.343,0.037q0.167,0.037.315,0.056V15.59l-0.3-.037-0.306-.037a2.989,2.989,0,0,0-.343-0.018,5.5,5.5,0,0,0-2.078.39,6.153,6.153,0,0,0-1.744,1.067,7.067,7.067,0,0,0-1.355,1.6,8.562,8.562,0,0,0-.909,1.976H60.731q0.018-.2.037-0.427,0.018-.2.028-0.455t0.009-.566v-3.34H57.243V34.961ZM68.972,29.71a7.857,7.857,0,0,0,.241,2.078,5,5,0,0,0,.64,1.466,3.705,3.705,0,0,0,.919.965,4.185,4.185,0,0,0,1.095.566,5.5,5.5,0,0,0,1.169.26,10.292,10.292,0,0,0,1.113.065q0.241,0,.464-0.009T75,35.072q0.2-.019.353-0.037V31.77a0.936,0.936,0,0,1-.186.019,1.035,1.035,0,0,1-.2.018H74.724a3.1,3.1,0,0,1-.807-0.1,1.376,1.376,0,0,1-.659-0.4,2.04,2.04,0,0,1-.436-0.826,5.048,5.048,0,0,1-.158-1.4V8.131H68.972V29.71Zm8.036,5.251h3.674v-9q0-.724.065-1.373A5.875,5.875,0,0,1,81,23.364a6.738,6.738,0,0,1,.872-1.9,6.546,6.546,0,0,1,1.364-1.494A5.99,5.99,0,0,1,85,18.995a6.182,6.182,0,0,1,2.069-.343,3.967,3.967,0,0,1,1.865.38,2.849,2.849,0,0,1,1.113,1.03,4.128,4.128,0,0,1,.538,1.531,12.223,12.223,0,0,1,.139,1.9V34.961h3.692V22.641q0-3.692-1.6-5.529t-5.019-1.837a7.961,7.961,0,0,0-2.783.455,8.345,8.345,0,0,0-2.115,1.123,7.2,7.2,0,0,0-1.466,1.438,7.411,7.411,0,0,0-.853,1.4H80.5q0.018-.2.037-0.427,0.018-.2.028-0.445t0.009-.538V15.738H77.008V34.961ZM97.05,29.33a9.522,9.522,0,0,0,2.087,3.2,9.645,9.645,0,0,0,3.219,2.125,10.793,10.793,0,0,0,4.138.77A10.406,10.406,0,0,0,109.6,35a13.327,13.327,0,0,0,2.328-.946,10.943,10.943,0,0,0,2-1.373l-1.521-2.69A8.411,8.411,0,0,1,110.8,31.12a11.026,11.026,0,0,1-1.81.77,7.144,7.144,0,0,1-2.273.343,7.531,7.531,0,0,1-2.449-.4,5.908,5.908,0,0,1-3.525-3.182,7.262,7.262,0,0,1-.631-2.765H114.12c0.012-.21.031-0.414,0.055-0.612,0.025-.173.044-0.349,0.056-0.529s0.019-.331.019-0.455a11.245,11.245,0,0,0-.538-3.516,8.358,8.358,0,0,0-1.587-2.867,7.386,7.386,0,0,0-2.607-1.93,8.654,8.654,0,0,0-3.6-.705,10.013,10.013,0,0,0-3.813.714,8.914,8.914,0,0,0-3.043,2.032,9.422,9.422,0,0,0-2.023,3.173,11.226,11.226,0,0,0-.733,4.156A10.568,10.568,0,0,0,97.05,29.33Zm3.172-6.225a6.483,6.483,0,0,1,.715-2.1,5.526,5.526,0,0,1,1.243-1.531,5.17,5.17,0,0,1,1.67-.946,6.047,6.047,0,0,1,1.994-.325,5.152,5.152,0,0,1,1.754.3,3.936,3.936,0,0,1,1.447.909,4.679,4.679,0,0,1,1.011,1.531,5.972,5.972,0,0,1,.427,2.162H100.222ZM114.9,32.6a8.177,8.177,0,0,0,1.874,1.41,11.719,11.719,0,0,0,2.283.974,10.241,10.241,0,0,0,3.135.436A9.089,9.089,0,0,0,125.06,35a6.824,6.824,0,0,0,2.2-1.169,5.133,5.133,0,0,0,1.4-1.763,5.071,5.071,0,0,0,.491-2.227,4.646,4.646,0,0,0-.426-2.059,5.181,5.181,0,0,0-1.123-1.521,7.682,7.682,0,0,0-1.586-1.132,19.28,19.28,0,0,0-1.81-.863q-0.918-.38-1.809-0.724a12.348,12.348,0,0,1-1.586-.733,4.375,4.375,0,0,1-1.123-.863,1.621,1.621,0,0,1-.426-1.123,2.038,2.038,0,0,1,.269-1.076,2.241,2.241,0,0,1,.714-0.733,3.148,3.148,0,0,1,1.011-.418,5.179,5.179,0,0,1,1.16-.13,6.875,6.875,0,0,1,2.022.269,9.161,9.161,0,0,1,1.485.584,6.14,6.14,0,0,1,1.243.854l1.484-2.765a7.649,7.649,0,0,0-1.521-1.058,10.546,10.546,0,0,0-1.93-.742,9.924,9.924,0,0,0-2.746-.334,9.787,9.787,0,0,0-2.709.362,6.793,6.793,0,0,0-2.208,1.067,5.2,5.2,0,0,0-1.494,1.726,4.829,4.829,0,0,0-.547,2.319,4.586,4.586,0,0,0,.427,2.041,5.171,5.171,0,0,0,1.122,1.521,7.64,7.64,0,0,0,1.587,1.132q0.891,0.483,1.809.872t1.809,0.742a12.251,12.251,0,0,1,1.586.752,4.422,4.422,0,0,1,1.123.881,1.681,1.681,0,0,1,.427,1.15,1.882,1.882,0,0,1-.279,1.021,2.527,2.527,0,0,1-.723.751,3.343,3.343,0,0,1-1.021.464,4.4,4.4,0,0,1-1.169.158,7.039,7.039,0,0,1-2.273-.343,9.285,9.285,0,0,1-1.734-.77,6.884,6.884,0,0,1-1.5-1.132Zm14.754,0a8.155,8.155,0,0,0,1.874,1.41,11.708,11.708,0,0,0,2.282.974,10.247,10.247,0,0,0,3.136.436A9.087,9.087,0,0,0,139.813,35a6.824,6.824,0,0,0,2.2-1.169,5.133,5.133,0,0,0,1.4-1.763,5.072,5.072,0,0,0,.492-2.227,4.646,4.646,0,0,0-.427-2.059,5.181,5.181,0,0,0-1.123-1.521,7.655,7.655,0,0,0-1.586-1.132,19.383,19.383,0,0,0-1.809-.863q-0.919-.38-1.809-0.724a12.3,12.3,0,0,1-1.587-.733,4.352,4.352,0,0,1-1.122-.863,1.618,1.618,0,0,1-.427-1.123,2.038,2.038,0,0,1,.269-1.076A2.241,2.241,0,0,1,135,19.013a3.144,3.144,0,0,1,1.012-.418,5.17,5.17,0,0,1,1.159-.13,6.886,6.886,0,0,1,2.023.269,9.184,9.184,0,0,1,1.484.584,6.14,6.14,0,0,1,1.243.854l1.485-2.765a7.687,7.687,0,0,0-1.522-1.058,10.517,10.517,0,0,0-1.93-.742,9.924,9.924,0,0,0-2.746-.334,9.787,9.787,0,0,0-2.709.362,6.793,6.793,0,0,0-2.208,1.067,5.18,5.18,0,0,0-1.493,1.726,4.829,4.829,0,0,0-.548,2.319,4.586,4.586,0,0,0,.427,2.041,5.156,5.156,0,0,0,1.123,1.521,7.607,7.607,0,0,0,1.586,1.132q0.891,0.483,1.809.872T137,27.057a12.33,12.33,0,0,1,1.587.752,4.433,4.433,0,0,1,1.122.881,1.676,1.676,0,0,1,.427,1.15,1.89,1.89,0,0,1-.278,1.021,2.543,2.543,0,0,1-.724.751,3.343,3.343,0,0,1-1.021.464,4.394,4.394,0,0,1-1.168.158,7.035,7.035,0,0,1-2.273-.343,9.266,9.266,0,0,1-1.735-.77,6.932,6.932,0,0,1-1.5-1.132Z"/>
  <path id="Polygon_4" data-name="Polygon 4" class="cls-2" d="M165,26a12.967,12.967,0,0,1-10.225-4.989h-7.77l5.01-7.711c0-.1-0.015-0.2-0.015-0.3A13,13,0,1,1,165,26Z"/>
  <path id="GO" class="cls-1" d="M160.36,13.89h1.488v1.638a5.38,5.38,0,0,1-1.058.107,1.812,1.812,0,0,1-1.523-.674,3.132,3.132,0,0,1-.524-1.952,2.814,2.814,0,0,1,.65-1.95,2.209,2.209,0,0,1,1.73-.725,3.95,3.95,0,0,1,1.788.43l0.553-1.332a5.832,5.832,0,0,0-2.331-.483,4.132,4.132,0,0,0-3.016,1.063,3.957,3.957,0,0,0-1.087,2.965,4.345,4.345,0,0,0,.937,3,3.459,3.459,0,0,0,2.715,1.045,9.292,9.292,0,0,0,1.367-.1,8.777,8.777,0,0,0,1.426-.346V12.5H160.36V13.89Zm10.713-3.91A3.575,3.575,0,0,0,168.3,8.938a3.623,3.623,0,0,0-2.779,1.034,4.217,4.217,0,0,0-.97,2.994,4.275,4.275,0,0,0,.967,3.008,4.19,4.19,0,0,0,5.543,0,4.263,4.263,0,0,0,.967-3A4.273,4.273,0,0,0,171.073,9.98Zm-4.267,1.012a1.758,1.758,0,0,1,1.5-.669q1.982,0,1.982,2.653t-1.993,2.648a1.748,1.748,0,0,1-1.493-.666,3.28,3.28,0,0,1-.5-1.982A3.264,3.264,0,0,1,166.806,10.992Z"/>
</svg>
